<svg id="Ebene_1" data-name="Ebene 1" xmlns="http://www.w3.org/2000/svg" viewBox="0 0 227.5 95.16"><defs><style>.cls-1{fill:#fed5b7;}.cls-2{fill:#e1bca6;}.cls-3{fill:#e0e0e0;}.cls-4{fill:#0ac629;}.cls-5{fill:#d8b084;}.cls-6{fill:#dbdbdb;}.cls-7{fill:#cecece;}.cls-8{fill:#38340a;}.cls-9{fill:#e1bca5;}.cls-10{fill:#db6e6e;}.cls-11{fill:#fff;}.cls-12{fill:#896f1d;}.cls-13{fill:#e1bda7;}.cls-14{fill:#efc9af;}.cls-15{fill:#edc9b0;}.cls-16{fill:#dd7c7c;}.cls-17{fill:#a56262;}.cls-18{fill:#9cf2e6;}.cls-19{fill:#e8e8e8;}.cls-20{font-size:35px;font-family:AgencyFB-Bold, Agency FB;font-weight:700;}</style></defs><title>255x100</title><path class="cls-1" d="M51.43,97.8s-6.14-2.16-6.38-2.47c-.67-.88-14.09-9-15.1-13.92-1.51-4.58-3.36-10.75-2.85-10.93-.67,0-2.52-.53-2.68-1.94s0-1.06,0-1.06-3.36-6.7-3.36-10.93c0,0-1.34-4.41-1-4.58s3.86,1.06,3.52,1.59.5-22.38,1.17-22.91,9.23-18.33,11.91-18,24.83,1.23,26.17,1.59,13.92,9.34,13.92,9.34l6.71,17.27L81.79,53.4,85.31,50s2.68.7,1.17,5.64c-.5,1.23-2.85,10.22-2.85,10.22s-4,8.81-5.54,6.87c0,0-2.68,12.86-13.76,19.56-1.68.88-6,6.17-10.9,5.46Z" transform="translate(-20 -2.7)"/><polygon class="cls-2" points="10.54 46.55 12.72 49.37 25.19 48.3 27.65 44.97 20.1 42.68 10.54 46.55"/><path class="cls-3" d="M43.29,53.13a7.09,7.09,0,0,1-8.22-.88c-.38-.64,2-2.64,5-2.74S47.48,53,43.29,53.13Z" transform="translate(-20 -2.7)"/><ellipse class="cls-4" cx="20.19" cy="49.11" rx="2.35" ry="2.47"/><path class="cls-5" d="M44.13,53.31l1.34-.18s.34-4.41-3.52-4.58-8.22.7-9.23,3.52a1,1,0,0,0,1.17.7c.17,0,5.2,3,8.56,1.23.17-.35-2.85.88-7.38-1.76a6.15,6.15,0,0,1,6.21-2.64C47.15,51.9,44.3,53.13,44.13,53.31Z" transform="translate(-20 -2.7)"/><ellipse cx="20.19" cy="49.11" rx="1.09" ry="1.15"/><path class="cls-6" d="M40.52,50.22s1.34,0,1,.7C39.18,51.28,40.52,50.22,40.52,50.22Z" transform="translate(-20 -2.7)"/><ellipse class="cls-7" cx="19.26" cy="48.93" rx="0.42" ry="0.35"/><path class="cls-8" d="M46,67.05s2.35-1.23,3.44.72c.08.33-3.11.33-3.11,0A1.25,1.25,0,0,0,46,67.05Z" transform="translate(-20 -2.7)"/><path class="cls-8" d="M57.81,67.05s-2.35-1.23-3.44.72c-.08.33,3.11.33,3.11,0A1.25,1.25,0,0,1,57.81,67.05Z" transform="translate(-20 -2.7)"/><polygon class="cls-9" points="25.47 65.23 21.28 73.69 43.76 73.69 38.7 64.79 32.01 66.11 25.47 65.23"/><path class="cls-10" d="M52.52,74.28a26.66,26.66,0,0,1-4.36-.7c-.55-.29-4.55,1.3-6.19,2.28a2,2,0,0,0-.69.54c-.34.7,4.36,5.29,11.24,6" transform="translate(-20 -2.7)"/><path class="cls-10" d="M52.5,74.28a26.66,26.66,0,0,0,4.36-.7c.67-.35,6.54,2.11,6.88,2.82s-4.36,5.29-11.24,6" transform="translate(-20 -2.7)"/><path d="M44.12,75.34a25.76,25.76,0,0,1,3.86.22,43.36,43.36,0,0,1,4.7,1.19,28.5,28.5,0,0,1,3.69-1c2.1-.27,3.85-.43,3.85-.43s2.72,0,2.51,1.08c-11.5,9.75-19,.87-19.66.22C42,75.56,44.12,75.34,44.12,75.34Z" transform="translate(-20 -2.7)"/><path class="cls-11" d="M44.12,75.33a9.9,9.9,0,0,1,3.53-.18c1.44.15,2.85,1.06,4.87,1.06s2.77-1.1,4-1.23a9,9,0,0,1,3.69.35s2.72,0,2.51.88a17.8,17.8,0,0,1-10.22,3.35,14.32,14.32,0,0,1-9.44-3.17C42,75.51,44.12,75.33,44.12,75.33Z" transform="translate(-20 -2.7)"/><polygon class="cls-2" points="51.81 46.55 49.63 49.37 37.16 48.3 34.7 44.97 42.25 42.68 51.81 46.55"/><path class="cls-3" d="M59.07,53.13a7.09,7.09,0,0,0,8.22-.88c.38-.64-2-2.64-5-2.74S54.86,53,59.07,53.13Z" transform="translate(-20 -2.7)"/><ellipse class="cls-4" cx="42.17" cy="49.11" rx="2.35" ry="2.47"/><path class="cls-5" d="M58.23,53.31l-1.34-.18s-.34-4.41,3.52-4.58,8.22.7,9.23,3.52a1,1,0,0,1-1.17.7c-.17,0-5.2,3-8.56,1.23-.17-.35,2.85.88,7.38-1.76a6.15,6.15,0,0,0-6.21-2.64C55.21,51.9,58.06,53.13,58.23,53.31Z" transform="translate(-20 -2.7)"/><ellipse cx="42.17" cy="49.11" rx="1.09" ry="1.15"/><path class="cls-6" d="M62.67,50.22s1.34,0,1,.7C61.32,51.28,62.67,50.22,62.67,50.22Z" transform="translate(-20 -2.7)"/><ellipse class="cls-7" cx="41.16" cy="49.02" rx="0.42" ry="0.35"/><path class="cls-12" d="M20.64,52.07c.34-25-2.18-31.89,10.9-41.76,7-.7,10.9-13.22,38.92-2.82,8.22,6.17,19.29,7.58,14.76,42.64l-3.36,3.35s.83-29-27.51-28.19c-31.2.88-30.7,27.14-30.87,28A6.3,6.3,0,0,0,20.64,52.07Z" transform="translate(-20 -2.7)"/><path class="cls-12" d="M37.08,13s-8.39-6.34-13.92-2.82c6.28-.42,5.58,1.69,12.58,3.52C37.08,14,37.08,13,37.08,13Z" transform="translate(-20 -2.7)"/><path class="cls-12" d="M34.06,12.6,22.15,16s9.06-8.28,12.92-6.17S34.06,12.6,34.06,12.6Z" transform="translate(-20 -2.7)"/><path class="cls-12" d="M39.26,8.2s-7.21.35-8.72.88,8.95-2.94,10.57-1.59-1.85,1.06-1.85,1.06Z" transform="translate(-20 -2.7)"/><path class="cls-12" d="M39.93,6.61S28,8.73,27.35,8.55,42.11,2,44.8,5.2,39.93,6.61,39.93,6.61Z" transform="translate(-20 -2.7)"/><path class="cls-12" d="M50,5s-16.44.7-19.8-.7c21.14-3.7,23.32,0,23.65.7C54.36,7.85,50,5,50,5Z" transform="translate(-20 -2.7)"/><path class="cls-12" d="M60.57,7.85,47.31,4.29s21-1.73,19,3.56S60.57,7.85,60.57,7.85Z" transform="translate(-20 -2.7)"/><path class="cls-1" d="M45.13,65.64s.84-3,1.34-3.35,3.86-1.06,3.19-8.81c-.11-1.28,4.36-.35,4.36-.35s.88,8.56,2.52,9a3.05,3.05,0,0,1,2.18,3.52" transform="translate(-20 -2.7)"/><path class="cls-12" d="M30.54,49.25l1.51.88s9.73-7,13.92-1.76l1.68-.7S42.28,39.92,30.54,49.25Z" transform="translate(-20 -2.7)"/><path class="cls-12" d="M71.81,49.25l-1.51.88s-9.73-7-13.92-1.76l-1.68-.7S60.07,39.92,71.81,49.25Z" transform="translate(-20 -2.7)"/><path class="cls-13" d="M71.25,86.4c1.9-2.48,4.38-4.4,5.56-9.51C82.59,59.94,84,49.38,78,37.77,70.82,23.59,55.19,25.3,55.19,25.3S92.84,33.08,71.25,86.4Z" transform="translate(-20 -2.7)"/><path class="cls-13" d="M79.15,69.34s3.22,1.41,6.41-15.15c.69-3.56-3.78,1.85-3.78,1.85Z" transform="translate(-20 -2.7)"/><path class="cls-14" d="M80.08,64.68s3.81-5.21,3.48-7.32-2.09.29-2.09.29Z" transform="translate(-20 -2.7)"/><path class="cls-2" d="M26.68,68.11s-6.38-10-5.37-14.1c.24-1,2.35.53,2.35.53Z" transform="translate(-20 -2.7)"/><path class="cls-14" d="M25.51,62.82s-2.68-4.41-2.35-4.93a3,3,0,0,1,1-.88Z" transform="translate(-20 -2.7)"/><path class="cls-15" d="M45.13,65.64s-.5,2.64,1.68,2.64A15.26,15.26,0,0,1,52,69.34s.17-.7,0-.88a19.12,19.12,0,0,0-2.68-.7,7.15,7.15,0,0,0-2.52-.18c-.31.22-1.34-1.94-1.17-1.94Z" transform="translate(-20 -2.7)"/><path class="cls-15" d="M58.92,65.64s.5,2.64-1.68,2.64A15.26,15.26,0,0,0,52,69.34s-.17-.7,0-.88a19.12,19.12,0,0,1,2.68-.7,7.15,7.15,0,0,1,2.52-.18c.31.22,1.34-1.94,1.17-1.94Z" transform="translate(-20 -2.7)"/><path class="cls-16" d="M55.6,75.26v.56a.57.57,0,0,1,.41-.11,1.18,1.18,0,0,1,.51.11V75A1.8,1.8,0,0,0,55.6,75.26Z" transform="translate(-20 -2.7)"/><path class="cls-17" d="M55.6,75.71v.21h.91v-.21A.8.8,0,0,0,55.6,75.71Z" transform="translate(-20 -2.7)"/><path d="M56.51,75.92v3.15a8.09,8.09,0,0,1-.91.19V75.92Z" transform="translate(-20 -2.7)"/><path class="cls-18" d="M57.37,54.45a4,4,0,0,0,2.44,2.24c1.67,2.29,1,3.68-.25,4.42s-3.25-2.56-2.69-3.89A7.43,7.43,0,0,0,57.37,54.45Z" transform="translate(-20 -2.7)"/><path class="cls-18" d="M59,62.54s1.32,2.11,2.29,2.19,1.32,1.9.69,2.11-2.15-.15-2-.87-1-3.06-1-3.06" transform="translate(-20 -2.7)"/><ellipse class="cls-19" cx="39.51" cy="54.3" rx="0.25" ry="0.27"/><ellipse class="cls-19" cx="37.73" cy="55.16" rx="0.41" ry="0.59"/><ellipse class="cls-19" cx="41.64" cy="63.58" rx="0.25" ry="0.37"/><text class="cls-20" transform="translate(109.68 37.54)">Timmys<tspan x="12.7" y="42">Tooth</tspan></text></svg>